<svg xmlns="http://www.w3.org/2000/svg" viewBox="0 0 240 240" width="100%" height="100%">
  <defs>
    <linearGradient id="bg-grad-h10" x1="0%" y1="0%" x2="100%" y2="100%">
      <stop offset="0%" stop-color="#0c130e"/>
      <stop offset="100%" stop-color="#142117"/>
    </linearGradient>
    <linearGradient id="body-steel" x1="0%" y1="0%" x2="100%" y2="0%">
      <stop offset="0%" stop-color="#1e2920"/>
      <stop offset="30%" stop-color="#324637"/>
      <stop offset="70%" stop-color="#243428"/>
      <stop offset="100%" stop-color="#1a251c"/>
    </linearGradient>
    <linearGradient id="solar-pv" x1="0%" y1="0%" x2="100%" y2="100%">
      <stop offset="0%" stop-color="#102a43"/>
      <stop offset="50%" stop-color="#243b53"/>
      <stop offset="100%" stop-color="#0b1b2b"/>
    </linearGradient>
    <linearGradient id="neon-glow" x1="0%" y1="0%" x2="100%" y2="0%">
      <stop offset="0%" stop-color="#53ee81"/>
      <stop offset="100%" stop-color="#2ecc71"/>
    </linearGradient>
    <filter id="glow-h10" x="-20%" y="-20%" width="140%" height="140%">
      <feGaussianBlur stdDeviation="3" result="blur"/>
      <feComposite in="SourceGraphic" in2="blur" operator="over"/>
    </filter>
  </defs>

  <!-- Background Base -->
  <rect width="240" height="240" rx="20" fill="url(#bg-grad-h10)"/>
  <rect width="238" height="238" x="1" y="1" rx="19" fill="none" stroke="#53ee81" stroke-opacity="0.2" stroke-width="1.5"/>

  <!-- Subtle grid pattern -->
  <path d="M20 60h200M20 120h200M20 180h200M60 20v200M120 20v200M180 20v200" stroke="#53ee81" stroke-opacity="0.04" stroke-width="1"/>

  <!-- Solar Roof Canopy -->
  <polygon points="34,44 206,44 196,28 44,28" fill="url(#solar-pv)" stroke="#53ee81" stroke-opacity="0.4" stroke-width="1.2"/>
  <!-- Solar PV cells -->
  <line x1="68" y1="28" x2="62" y2="44" stroke="#486581" stroke-width="1"/>
  <line x1="94" y1="28" x2="90" y2="44" stroke="#486581" stroke-width="1"/>
  <line x1="120" y1="28" x2="120" y2="44" stroke="#486581" stroke-width="1"/>
  <line x1="146" y1="28" x2="150" y2="44" stroke="#486581" stroke-width="1"/>
  <line x1="172" y1="28" x2="178" y2="44" stroke="#486581" stroke-width="1"/>
  <line x1="39" y1="36" x2="201" y2="36" stroke="#486581" stroke-width="0.8"/>

  <!-- Station Upper Casing -->
  <rect x="42" y="44" width="156" height="150" rx="8" fill="url(#body-steel)" stroke="#4a6350" stroke-width="1.5"/>

  <!-- Top Smart IoT Display Screen -->
  <rect x="52" y="52" width="136" height="22" rx="4" fill="#09100a" stroke="#53ee81" stroke-opacity="0.6" stroke-width="1"/>
  <circle cx="62" cy="63" r="3" fill="#53ee81" filter="url(#glow-h10)"/>
  <text x="72" y="66" fill="#53ee81" font-family="'Lexend', sans-serif" font-size="8.5" font-weight="700" letter-spacing="0.08em">FPC H10 PRO • 100% SOLAR</text>
  <rect x="170" y="59" width="12" height="8" rx="1.5" fill="none" stroke="#53ee81" stroke-width="0.9"/>
  <rect x="172" y="61" width="6" height="4" fill="#53ee81"/>

  <!-- 4 Smart Recycling Compartments -->
  <!-- Compartment 1: Papel (Blue) -->
  <g transform="translate(50, 82)">
    <rect width="32" height="98" rx="4" fill="#152018" stroke="#38bdf8" stroke-opacity="0.7" stroke-width="1.2"/>
    <rect x="4" y="6" width="24" height="6" rx="2" fill="#38bdf8" fill-opacity="0.85"/>
    <circle cx="16" cy="22" r="3.5" fill="#38bdf8" fill-opacity="0.9"/>
    <!-- Sorting icon lines -->
    <rect x="7" y="36" width="18" height="42" rx="2" fill="#0d1610" stroke="#2a4533" stroke-width="0.8"/>
    <line x1="10" y1="44" x2="22" y2="44" stroke="#38bdf8" stroke-width="1.2"/>
    <line x1="10" y1="52" x2="20" y2="52" stroke="#38bdf8" stroke-width="1.2"/>
    <line x1="10" y1="60" x2="18" y2="60" stroke="#38bdf8" stroke-width="1.2"/>
    <!-- Fill level gauge -->
    <rect x="7" y="86" width="18" height="3" rx="1.5" fill="#38bdf8" fill-opacity="0.4"/>
    <rect x="7" y="86" width="11" height="3" rx="1.5" fill="#38bdf8"/>
  </g>

  <!-- Compartment 2: Plástico (Yellow) -->
  <g transform="translate(86, 82)">
    <rect width="32" height="98" rx="4" fill="#152018" stroke="#f59e0b" stroke-opacity="0.7" stroke-width="1.2"/>
    <rect x="4" y="6" width="24" height="6" rx="2" fill="#f59e0b" fill-opacity="0.85"/>
    <circle cx="16" cy="22" r="3.5" fill="#f59e0b" fill-opacity="0.9"/>
    <rect x="7" y="36" width="18" height="42" rx="2" fill="#0d1610" stroke="#2a4533" stroke-width="0.8"/>
    <!-- Bottle silhouette -->
    <path d="M14 42h4v3h2l1 12h-8l1-12h2z" fill="#f59e0b" fill-opacity="0.7"/>
    <!-- Fill gauge -->
    <rect x="7" y="86" width="18" height="3" rx="1.5" fill="#f59e0b" fill-opacity="0.4"/>
    <rect x="7" y="86" width="14" height="3" rx="1.5" fill="#f59e0b"/>
  </g>

  <!-- Compartment 3: Vidro (Green) -->
  <g transform="translate(122, 82)">
    <rect width="32" height="98" rx="4" fill="#152018" stroke="#10b981" stroke-opacity="0.7" stroke-width="1.2"/>
    <rect x="4" y="6" width="24" height="6" rx="2" fill="#10b981" fill-opacity="0.85"/>
    <circle cx="16" cy="22" r="3.5" fill="#10b981" fill-opacity="0.9"/>
    <rect x="7" y="36" width="18" height="42" rx="2" fill="#0d1610" stroke="#2a4533" stroke-width="0.8"/>
    <!-- Glass silhouette -->
    <path d="M12 43h8l-2 11h-4z M15 54v4 M12 58h6" stroke="#10b981" stroke-width="1.2" fill="none"/>
    <!-- Fill gauge -->
    <rect x="7" y="86" width="18" height="3" rx="1.5" fill="#10b981" fill-opacity="0.4"/>
    <rect x="7" y="86" width="7" height="3" rx="1.5" fill="#10b981"/>
  </g>

  <!-- Compartment 4: Orgânico (Red/Orange) -->
  <g transform="translate(158, 82)">
    <rect width="32" height="98" rx="4" fill="#152018" stroke="#ef4444" stroke-opacity="0.7" stroke-width="1.2"/>
    <rect x="4" y="6" width="24" height="6" rx="2" fill="#ef4444" fill-opacity="0.85"/>
    <circle cx="16" cy="22" r="3.5" fill="#ef4444" fill-opacity="0.9"/>
    <rect x="7" y="36" width="18" height="42" rx="2" fill="#0d1610" stroke="#2a4533" stroke-width="0.8"/>
    <!-- Leaf / organic icon -->
    <path d="M16 43c3 2 4 6 2 9-2 3-6 4-6 4s1-4 2-6c2-3 2-7 2-7z" fill="#ef4444" fill-opacity="0.7"/>
    <!-- Fill gauge -->
    <rect x="7" y="86" width="18" height="3" rx="1.5" fill="#ef4444" fill-opacity="0.4"/>
    <rect x="7" y="86" width="16" height="3" rx="1.5" fill="#ef4444"/>
  </g>

  <!-- Ground mounting plinth / Base -->
  <polygon points="36,204 204,204 212,216 28,216" fill="#131b15" stroke="#36493b" stroke-width="1.2"/>
  <rect x="32" y="214" width="176" height="6" rx="2" fill="#0b110c"/>
  <circle cx="48" cy="210" r="2" fill="#53ee81"/>
  <circle cx="192" cy="210" r="2" fill="#53ee81"/>

  <!-- Subtle glow edge bar -->
  <line x1="46" y1="194" x2="194" y2="194" stroke="#53ee81" stroke-width="1.5" filter="url(#glow-h10)"/>

  <!-- Top Badge Label -->
  <g transform="translate(142, 14)">
    <rect width="84" height="18" rx="9" fill="#007A33" stroke="#53ee81" stroke-width="1"/>
    <text x="42" y="12" fill="#ffffff" font-family="'Lexend', sans-serif" font-size="7.5" font-weight="700" text-anchor="middle">FLAGSHIP MUNICIPAL</text>
  </g>
</svg>